
<svg xmlns="http://www.w3.org/2000/svg" viewBox="0 0 828 1037" width="828" height="1037">
	<style>
		.shp0 { fill: #ffd740 } 
	</style>
	<g id="Layer">
		<path id="Layer" fill-rule="evenodd" class="shp0" d="M448.6 1C489.3 4.2 518.4 11.3 555.8 27.1C558.1 28.1 560.3 28.9 560.7 28.9C561 28.9 561.6 29.3 561.9 29.8C562.2 30.3 565.7 32.4 569.5 34.3C577.9 38.6 582 41.1 583.8 42.8C584.6 43.5 586.6 44.8 588.3 45.7C590.1 46.6 591.7 47.6 592 47.9C592.9 48.9 598.9 53 599.6 53C600 53 601.3 54.1 602.6 55.5C603.9 56.9 605.4 58 606 58C606.5 58 607 58.4 607 59C607 59.5 607.7 60 608.5 60C609.3 60 610 60.4 610 61C610 61.5 611.2 62.6 612.8 63.4C614.3 64.2 615.1 64.9 614.7 65C614.3 65 614.5 65.6 615.2 66.4C615.9 67.2 616.8 67.6 617.3 67.3C617.7 67.1 618 67.4 618 67.9C618 68.5 618.7 69 619.6 69C620.4 69 620.8 69.4 620.5 70C620.2 70.5 620.6 71 621.4 71C622.3 71 623 71.7 623 72.5C623 73.3 623.6 74 624.4 74C625.2 74 626.2 74.9 626.5 76C626.9 77.1 628 78 629.1 78C630.2 78 630.9 78.4 630.6 78.8C630.3 79.3 632.1 81.6 634.5 84C637 86.4 639 89.2 639 90.3C639 91.3 639.4 91.9 639.9 91.5C640.4 91.2 641.5 91.9 642.3 93C643 94.1 644 94.7 644.3 94.3C644.7 94 645 94.2 645 94.8C645 95.4 646.1 97.1 647.6 98.5C649 99.9 649.9 101.4 649.7 101.8C649.4 102.2 649.8 103.1 650.6 103.8C651.4 104.5 652 104.7 652 104.3C652 103.9 653.1 105.4 654.4 107.7C656.5 111.3 661.9 119 664.9 122.6C665.4 123.2 666.8 125.7 668 128.1C669.3 130.5 670.6 132.7 670.9 133C671.3 133.3 673 136.2 674.7 139.5C676.3 142.8 679.6 149.1 681.8 153.5C688.6 166.9 692.1 175.1 691.4 176.2C690.9 176.9 691.2 177 692 176.5C692.9 175.9 693 176.3 692.5 178C692 179.7 692.1 180.1 693.1 179.5C694 178.9 694.2 179.2 693.7 180.3C693.4 181.3 693.5 182 694 182C694.6 182 695 182.7 695 183.5C695 184.3 695.4 185 695.9 185C696.4 185 696.6 185.9 696.3 187C696 188.1 696.2 189 696.8 189C697.3 189 698.1 191.1 698.5 193.7C699 197 699.4 197.9 700.1 196.9C700.8 195.8 701 196 701 197.6C701 198.8 701.7 201.4 702.6 203.5C703.4 205.5 703.9 207.4 703.6 207.7C703.4 208 703.6 209.4 704.2 210.9C705.3 213.7 705.8 215.9 706.7 220.5C706.9 222.1 707.5 223.9 708 224.5C708.4 225 708.6 226.5 708.5 227.7C708.4 229 708.6 230 709 230C709.6 230 710.5 234.5 712.6 247C714 255.6 716.3 270.1 716.6 272.5C717.1 275.9 717.8 284.8 718.5 296.5C718.7 300.9 718.9 342.6 719 389.2L719 473.9L721.6 476.7C723 478.2 723.8 478.8 723.4 478C722.9 477.1 723.5 477.2 724.9 478.5C726.2 479.6 727.5 480.4 727.9 480.4C728.2 480.3 729.6 480.6 730.9 481.1C732.2 481.6 734 482.2 734.9 482.4C736.4 482.7 737.2 482.9 741.8 484.7C742.7 485 743.9 485.2 744.3 485.1C744.7 485.1 746.3 485.6 747.8 486.4C749.3 487.1 751.3 487.6 752.3 487.5C753.2 487.3 754 487.6 754 488.1C754 488.7 754.5 488.8 755 488.5C755.6 488.2 756 488.4 756 489C756 489.6 756.5 489.8 757 489.5C757.6 489.2 758 489.4 758 489.9C758 490.5 758.9 491 760 491C761.1 491 762 491.4 762 492C762 492.5 762.7 493 763.5 493C764.3 493 765 493.4 765 494C765 494.5 765.6 495 766.4 495C767.1 495 768.3 495.6 769 496.4C769.6 497.2 770.7 497.7 771.5 497.4C772.3 497.1 773.1 497.8 773.6 499.2C774.3 501.4 774.3 501.4 775.1 499.5C775.5 498.4 775.9 498.1 775.9 498.8C776 500.2 778.4 502.9 779.7 503.2C781.2 503.6 790.9 512.7 797.1 519.6C800.2 523.1 807.9 535 810.9 540.7C817 552.8 822.9 572.7 824.6 587C824.9 589.4 825.3 591.7 825.6 592.1C825.8 592.5 826.2 597.7 826.6 603.7C826.9 609.6 827.3 615.1 827.6 615.9C827.8 616.6 828 687.7 828 773.9C828 902.8 827.7 932.8 826.5 943.5C823.4 971.9 815.7 989.9 799.6 1006.1C786.2 1019.7 768.6 1028.6 746.5 1033.1C727.4 1037 725.7 1037 415.1 1037C149.1 1037.1 114.1 1036.9 103 1035.6C77.6 1032.4 68.4 1029.7 50.9 1020.3C45.5 1017.4 42.7 1015.4 38.8 1011.7C37.8 1010.8 36.6 1010 36.1 1010C35.6 1010 34.6 1009.2 33.9 1008.2C32.6 1006.6 32.7 1006.6 34.5 1007.9C35.6 1008.7 34.6 1007.6 32.2 1005.5C28.4 1002.2 20 991.9 20 990.5C20 990.3 18.8 988.8 17.5 987.4C16.1 985.9 15.2 984.5 15.5 984.2C15.8 983.9 15.4 983 14.6 982.1C13.8 981.2 13.2 980.3 13.2 980C13.2 978.9 10.5 973.5 9.5 972.8C9 972.4 8.8 972 9.2 972C9.6 972 9 969.6 7.9 966.7C6.7 963.9 5.7 961 5.6 960.5C5.5 959.9 5.1 958.9 4.7 958.3C4.2 957.5 4.4 957 5.1 957C5.9 957 5.9 956.6 5.2 955.8C3.4 953.4 1.4 939 0.6 921.5C0.1 911.2 0 618.9 0.5 609C2.4 568.2 15.2 533 35.8 512.2C44.9 503 48.9 499.9 59.8 493.9C69.6 488.5 80.3 484.7 96.2 481.1C101.6 479.8 107.1 477.9 108.5 476.8L111.1 474.8L111 388.8C110.9 341.5 111.1 302.6 111.4 302.3C111.7 302 111.5 300.9 110.9 299.9C110.2 298.6 110.3 298 111 298C111.8 298 111.8 297.4 111 296C110.4 294.9 110.3 294 110.7 294C111.2 294 111.6 291.9 111.7 289.2C112.1 276.8 113.7 259.2 114.5 257.9C114.7 257.6 115.2 255.1 115.5 252.3C115.8 249.6 116.3 246.3 116.5 244.9C116.8 243.6 117.3 240.9 117.6 239C118.9 231.7 125 207.7 126.7 203C127.7 200.5 128.2 198.6 128.3 196.7C128.4 195.8 128.8 195 129.2 195C129.6 195 130 194.3 130 193.5C130 190.2 137.5 171.7 145.5 155.5C190.6 63.7 273.4 9.9 383 1.1C398.2 -0.1 433.6 -0.2 448.6 1ZM408.7 121.6C408.6 121.7 403.9 122 398.2 122.4C387.3 123 365.8 126.3 360 128.2C358.1 128.9 356 129.5 355.3 129.6C344.4 131.5 315.6 146.2 304.6 155.5C300.4 159 284.3 174.8 280.7 179C274.8 185.8 256 218.1 256 221.4C256 221.9 255.4 223.6 254.6 225.3C252.2 230.6 248.3 242.3 247.5 246.5C247.1 248.7 246.5 250.9 246.2 251.5C245.9 252 245.5 253.5 245.4 254.8C245.2 256.2 244.8 258 244.4 258.9C244 259.8 243.6 261.6 243.4 263C243.3 264.4 242.7 268.2 242.1 271.5C240.5 280.8 239.9 286 239.5 292.5C239.3 295.8 239.1 298.7 239 299C238.9 299.3 238.9 338.6 239 386.5C239.1 482.9 238.7 477 245.6 477C247.4 477 249.2 477.5 249.6 478.1C250.1 478.9 296.8 479.1 418.4 478.8C584.5 478.4 586.7 478.4 590.1 476.4L593.5 474.4L593.8 405C593.9 355.8 594.3 335.3 595.1 334.3C596 333.4 595.9 333 595.1 333C593.6 333 593.8 311.8 595.4 310.8C596.1 310.3 595.8 310 594.8 310C592.7 310 592.4 308.4 594.3 307.6C595.2 307.1 595.2 306.9 594.2 306.4C593.2 305.9 593.2 305.5 594.1 304.4C594.7 303.6 594.8 303 594.3 303C593.8 303 593.4 302.1 593.4 301C593.4 299.9 593.9 299 594.5 299C595.1 299 595.2 298.7 594.5 298.2C593.9 297.8 593.4 296.1 593.4 294.5C593.2 291.8 591.3 276.4 590.5 271.5C590.3 270.4 589.7 268.3 589.1 266.7C588.3 264.7 588.4 264 589.2 264C589.9 264 589.5 263.3 588.4 262.5C587.1 261.5 587 261.1 587.9 261C588.9 261 589 260.7 588.1 259.7C587.5 258.9 587.3 258 587.7 257.7C588 257.3 587.7 256.4 587 255.5C586.3 254.6 586 253.7 586.3 253.4C586.6 253.1 585.5 249 583.9 244.4C582.3 239.7 581.2 235.4 581.6 234.7C582 234 581.9 233.8 581.5 234.3C580.7 235 578 229.1 577.8 226.2C577.7 225.6 577.3 225 576.8 225C576.4 225 576.1 224.7 576.2 224.2C576.3 223.8 575.5 221.7 574.5 219.5C573.5 217.3 572.6 215.3 572.5 215C572.3 214.1 566.9 204.5 565 201.5C563.9 199.8 562.2 196.9 561.1 195C560 193.1 558.3 190.4 557.3 189.1C551.4 181.4 544.3 173.1 541.6 170.7C539.9 169.1 539.2 168.1 540 168.5C540.8 168.9 540.2 168.1 538.5 166.8C536.9 165.6 534.6 163.6 533.4 162.5C532.3 161.4 529.6 159.2 527.4 157.6C525.3 155.9 523.3 154.4 523 154.1C521.1 151.9 494.8 136.7 493.8 137.1C493.3 137.2 487.6 135 485.9 134.1C482.8 132.3 463.5 127.1 454.5 125.6C444.5 124 440.8 123.5 430.5 122.5C424.3 121.9 409.1 121.3 408.7 121.6Z" />
	</g>
</svg>